# xmcd
#
# Track frame offsets:
#	150
#	14595
#	28110
#	49405
#	61337
#	75317
#	93885
#	110447
#	125755
#	142865
#	159575
#	171722
#
# Disc length: 2437 seconds
#
# Revision: 4
# Processed by: cddbd v1.5.2PL0 Copyright (c) Steve Scherf et al.
# Submitted via: audiograbber 1.83.01
#
DISCID=a009830c
DTITLE=Various Artist - Absolute Country 2
DYEAR=1995
DGENRE=Country
TTITLE0=The Tractors - I've Had Enough
TTITLE1=John Randall - This Heart
TTITLE2=Trisha Yearwood - On A Bus To St. Cloud
TTITLE3=Radney Foster - Willin' To Walk
TTITLE4=John Gorka - Good Noise
TTITLE5=Rodney Crowell - Let The Picture Paint Itself
TTITLE6=Lari White - That's How You Know
TTITLE7=Blackhawk - Goodbye Says It All
TTITLE8=Marti Stewart - The Likes Of Me
TTITLE9=Susan Werner - Last of The Good Straight Girls
TTITLE10=Lee Roy Parnell - A Little Bit Of You
TTITLE11=David Lee Murphy - Out With A Bang
EXTD=
EXTT0=
EXTT1=
EXTT2=
EXTT3=
EXTT4=
EXTT5=
EXTT6=
EXTT7=
EXTT8=
EXTT9=
EXTT10=
EXTT11=
PLAYORDER=
